<svg width="80" height="113" viewBox="0 0 80 113" fill="none" xmlns="http://www.w3.org/2000/svg">
<path d="M0 0H80V79.5026H0V0Z" fill="black"/>
<path d="M0 82.4103H4.26991L6.17369 95.3184H6.22808L8.13186 82.4103H12.4018V100.446H9.5733V86.7903H9.5189L7.34315 100.446H4.84104L2.66529 86.7903H2.6109V100.446H0V82.4103Z" fill="black"/>
<path d="M16.946 82.4103H20.9983L24.0988 100.446H21.1071L20.5632 96.8643V96.9158H17.1636L16.6196 100.446H13.8455L16.946 82.4103ZM20.2096 94.4682L18.877 85.5536H18.8226L17.5171 94.4682H20.2096Z" fill="black"/>
<path d="M25.5502 82.4103H28.5418V97.8691H33.4645V100.446H25.5502V82.4103Z" fill="black"/>
<path d="M34.8991 82.4103H43.0582V84.9868H37.8908V89.7532H41.9975V92.3297H37.8908V97.8691H43.0582V100.446H34.8991V82.4103Z" fill="black"/>
<path d="M43.9905 82.4103H47.0093L48.9675 96.4005H49.0219L50.9801 82.4103H53.727L50.8441 100.446H46.8734L43.9905 82.4103Z" fill="black"/>
<path d="M55.1639 82.4103H58.1556V100.446H55.1639V82.4103Z" fill="black"/>
<path d="M64.6117 100.703C63.1793 100.703 62.0824 100.317 61.3209 99.5438C60.5775 98.7709 60.2058 97.6802 60.2058 96.2717V86.5842C60.2058 85.1757 60.5775 84.085 61.3209 83.3121C62.0824 82.5391 63.1793 82.1526 64.6117 82.1526C66.044 82.1526 67.1319 82.5391 67.8753 83.3121C68.6368 84.085 69.0176 85.1757 69.0176 86.5842V88.4908H66.1891V86.4038C66.1891 85.2874 65.6905 84.7291 64.6933 84.7291C63.696 84.7291 63.1974 85.2874 63.1974 86.4038V96.4778C63.1974 97.5771 63.696 98.1268 64.6933 98.1268C65.6905 98.1268 66.1891 97.5771 66.1891 96.4778V93.721H69.0176V96.2717C69.0176 97.6802 68.6368 98.7709 67.8753 99.5438C67.1319 100.317 66.044 100.703 64.6117 100.703Z" fill="black"/>
<path d="M70.8075 82.4103H73.7991V89.7532H77.0083V82.4103H80V100.446H77.0083V92.3297H73.7991V100.446H70.8075V82.4103Z" fill="black"/>
<path d="M0.732666 111.304V105.651H2.04907C2.44491 105.657 2.79777 105.724 3.10767 105.853C3.42017 105.98 3.68319 106.159 3.89673 106.389C4.11287 106.617 4.27694 106.891 4.38892 107.212C4.5035 107.53 4.56209 107.884 4.5647 108.272V108.687C4.56209 109.075 4.5035 109.43 4.38892 109.751C4.27694 110.069 4.11287 110.343 3.89673 110.574C3.68319 110.802 3.42017 110.98 3.10767 111.109C2.79777 111.236 2.44491 111.301 2.04907 111.304H0.732666ZM1.46704 106.242V110.717H2.04907C2.35636 110.715 2.62199 110.662 2.84595 110.558C3.06991 110.452 3.2548 110.309 3.40063 110.127C3.54907 109.946 3.65845 109.733 3.72876 109.487C3.80168 109.241 3.83944 108.974 3.84204 108.687V108.264C3.83944 107.977 3.80168 107.711 3.72876 107.468C3.65584 107.222 3.54647 107.01 3.40063 106.832C3.2548 106.65 3.06991 106.508 2.84595 106.405C2.62199 106.301 2.35636 106.247 2.04907 106.242H1.46704Z" fill="black"/>
<path d="M6.68485 107.103H8.84501V110.682H10.2239V111.304H6.68485V110.682H8.12235V107.728H6.68485V107.103ZM8.0286 106.001C8.0286 105.882 8.06376 105.782 8.13407 105.702C8.20699 105.619 8.31636 105.578 8.4622 105.578C8.60543 105.578 8.7135 105.619 8.78642 105.702C8.85933 105.782 8.89579 105.882 8.89579 106.001C8.89579 106.117 8.85933 106.214 8.78642 106.292C8.7135 106.37 8.60543 106.408 8.4622 106.408C8.31636 106.408 8.20699 106.37 8.13407 106.292C8.06376 106.214 8.0286 106.117 8.0286 106.001Z" fill="black"/>
<path d="M12.2034 109.169C12.2034 108.855 12.2412 108.568 12.3167 108.307C12.3949 108.043 12.5068 107.816 12.6527 107.627C12.7985 107.438 12.9756 107.291 13.1839 107.185C13.3923 107.079 13.6279 107.026 13.8909 107.026C14.1514 107.026 14.3792 107.072 14.5745 107.165C14.7725 107.256 14.9404 107.388 15.0784 107.561L15.1136 107.103H15.7699V111.214C15.7699 111.491 15.7256 111.737 15.637 111.952C15.5511 112.167 15.4287 112.349 15.2699 112.499C15.1136 112.649 14.9261 112.763 14.7074 112.841C14.4886 112.918 14.2464 112.957 13.9808 112.957C13.8714 112.957 13.7464 112.944 13.6058 112.918C13.4652 112.895 13.3219 112.855 13.1761 112.798C13.0329 112.744 12.8936 112.67 12.7581 112.577C12.6253 112.484 12.5107 112.369 12.4144 112.231L12.7894 111.8C12.8779 111.907 12.9691 111.996 13.0628 112.068C13.1566 112.143 13.2516 112.203 13.348 112.247C13.4443 112.291 13.5407 112.322 13.637 112.34C13.7334 112.361 13.8298 112.371 13.9261 112.371C14.098 112.371 14.2529 112.347 14.3909 112.297C14.529 112.248 14.6462 112.176 14.7425 112.08C14.8415 111.987 14.917 111.87 14.9691 111.731C15.0212 111.591 15.0472 111.43 15.0472 111.249V110.888C14.9066 111.049 14.7399 111.172 14.5472 111.257C14.3571 111.34 14.1357 111.381 13.8831 111.381C13.6253 111.381 13.3923 111.327 13.1839 111.218C12.9756 111.109 12.7985 110.959 12.6527 110.768C12.5094 110.576 12.3988 110.351 12.3206 110.092C12.2425 109.831 12.2034 109.55 12.2034 109.25V109.169ZM12.9261 109.25C12.9261 109.454 12.9469 109.649 12.9886 109.832C13.0329 110.016 13.1006 110.178 13.1917 110.318C13.2855 110.457 13.404 110.569 13.5472 110.651C13.6904 110.732 13.8623 110.772 14.0628 110.772C14.1878 110.772 14.2998 110.758 14.3988 110.729C14.5003 110.698 14.5902 110.655 14.6683 110.601C14.749 110.547 14.8206 110.482 14.8831 110.407C14.9456 110.332 15.0003 110.249 15.0472 110.158V108.233C15.0003 108.145 14.9456 108.065 14.8831 107.992C14.8206 107.92 14.749 107.858 14.6683 107.806C14.5876 107.752 14.4977 107.71 14.3988 107.682C14.2998 107.651 14.1904 107.635 14.0706 107.635C13.8675 107.635 13.693 107.677 13.5472 107.759C13.404 107.842 13.2855 107.955 13.1917 108.097C13.1006 108.237 13.0329 108.4 12.9886 108.586C12.9469 108.77 12.9261 108.964 12.9261 109.169V109.25Z" fill="black"/>
<path d="M18.2142 107.103H20.3744V110.682H21.7533V111.304H18.2142V110.682H19.6517V107.728H18.2142V107.103ZM19.558 106.001C19.558 105.882 19.5931 105.782 19.6634 105.702C19.7364 105.619 19.8457 105.578 19.9916 105.578C20.1348 105.578 20.2429 105.619 20.3158 105.702C20.3887 105.782 20.4252 105.882 20.4252 106.001C20.4252 106.117 20.3887 106.214 20.3158 106.292C20.2429 106.37 20.1348 106.408 19.9916 106.408C19.8457 106.408 19.7364 106.37 19.6634 106.292C19.5931 106.214 19.558 106.117 19.558 106.001Z" fill="black"/>
<path d="M25.5766 106.086V107.103H27.1859V107.658H25.5766V109.941C25.5766 110.104 25.5974 110.239 25.6391 110.345C25.6807 110.451 25.738 110.536 25.8109 110.601C25.8839 110.663 25.9672 110.707 26.0609 110.733C26.1573 110.759 26.2589 110.772 26.3656 110.772C26.4438 110.772 26.5245 110.768 26.6078 110.76C26.6912 110.75 26.7719 110.738 26.85 110.725C26.9307 110.712 27.005 110.699 27.0727 110.686C27.143 110.671 27.2003 110.658 27.2445 110.648L27.3461 111.156C27.2862 111.192 27.2133 111.225 27.1274 111.253C27.0414 111.279 26.9477 111.301 26.8461 111.319C26.7445 111.34 26.6365 111.355 26.5219 111.366C26.4099 111.376 26.2979 111.381 26.1859 111.381C25.9984 111.381 25.8227 111.355 25.6586 111.304C25.4971 111.249 25.3565 111.165 25.2367 111.051C25.1169 110.935 25.0219 110.786 24.9516 110.605C24.8839 110.421 24.85 110.2 24.85 109.941V107.658H23.7406V107.103H24.85V106.086H25.5766Z" fill="black"/>
<path d="M32.4077 111.304C32.379 111.249 32.3556 111.182 32.3374 111.102C32.3217 111.019 32.31 110.933 32.3022 110.846C32.2293 110.918 32.1473 110.987 32.0561 111.051C31.9676 111.116 31.8686 111.173 31.7592 111.222C31.6525 111.271 31.5379 111.31 31.4155 111.339C31.2931 111.367 31.1629 111.381 31.0249 111.381C30.8009 111.381 30.5978 111.349 30.4155 111.284C30.2358 111.219 30.0821 111.133 29.9545 111.024C29.8295 110.913 29.7319 110.782 29.6616 110.632C29.5939 110.479 29.56 110.315 29.56 110.139C29.56 109.909 29.6056 109.707 29.6967 109.533C29.7905 109.36 29.922 109.216 30.0913 109.103C30.2605 108.986 30.4637 108.899 30.7006 108.842C30.9402 108.785 31.2071 108.757 31.5014 108.757H32.2905V108.427C32.2905 108.3 32.267 108.186 32.2202 108.085C32.1733 107.985 32.1069 107.899 32.0209 107.829C31.935 107.757 31.8295 107.701 31.7045 107.662C31.5821 107.623 31.4441 107.604 31.2905 107.604C31.1473 107.604 31.0183 107.622 30.9038 107.658C30.7918 107.695 30.6967 107.743 30.6186 107.802C30.5405 107.862 30.4793 107.933 30.435 108.016C30.3933 108.096 30.3725 108.18 30.3725 108.268H29.6459C29.6486 108.115 29.6876 107.965 29.7631 107.818C29.8413 107.67 29.9519 107.538 30.0952 107.422C30.241 107.303 30.4168 107.207 30.6225 107.134C30.8308 107.062 31.0665 107.026 31.3295 107.026C31.5691 107.026 31.7918 107.055 31.9975 107.115C32.2032 107.172 32.3803 107.26 32.5288 107.379C32.6798 107.495 32.7983 107.642 32.8842 107.818C32.9702 107.994 33.0131 108.199 33.0131 108.435V110.387C33.0131 110.527 33.0262 110.676 33.0522 110.834C33.0782 110.989 33.1147 111.125 33.1616 111.241V111.304H32.4077ZM31.1303 110.756C31.2709 110.756 31.4025 110.738 31.5249 110.702C31.6473 110.666 31.7579 110.618 31.8569 110.558C31.9584 110.499 32.0457 110.431 32.1186 110.356C32.1915 110.279 32.2488 110.199 32.2905 110.116V109.266H31.6186C31.1967 109.266 30.8686 109.328 30.6342 109.452C30.3999 109.576 30.2827 109.771 30.2827 110.038C30.2827 110.142 30.2996 110.237 30.3334 110.325C30.3699 110.413 30.4233 110.49 30.4936 110.554C30.5639 110.616 30.6525 110.666 30.7592 110.702C30.866 110.738 30.9897 110.756 31.1303 110.756Z" fill="black"/>
<path d="M35.5083 105.341H37.6684V110.682H39.0474V111.304H35.5083V110.682H36.9458V105.966H35.5083V105.341Z" fill="black"/>
<path d="M49.6392 109.84H47.7408L47.2838 111.304H46.5611L48.397 105.651H49.0025L50.8072 111.304H50.0885L49.6392 109.84ZM47.9361 109.215H49.4478L48.6978 106.762L47.9361 109.215Z" fill="black"/>
<path d="M52.5563 109.169C52.5563 108.855 52.594 108.568 52.6695 108.307C52.7477 108.043 52.8596 107.816 53.0055 107.627C53.1513 107.438 53.3284 107.291 53.5367 107.185C53.7451 107.079 53.9807 107.026 54.2438 107.026C54.5042 107.026 54.732 107.072 54.9274 107.165C55.1253 107.256 55.2932 107.388 55.4313 107.561L55.4664 107.103H56.1227V111.214C56.1227 111.491 56.0784 111.737 55.9899 111.952C55.9039 112.167 55.7815 112.349 55.6227 112.499C55.4664 112.649 55.2789 112.763 55.0602 112.841C54.8414 112.918 54.5992 112.957 54.3336 112.957C54.2242 112.957 54.0992 112.944 53.9586 112.918C53.818 112.895 53.6748 112.855 53.5289 112.798C53.3857 112.744 53.2464 112.67 53.1109 112.577C52.9781 112.484 52.8636 112.369 52.7672 112.231L53.1422 111.8C53.2307 111.907 53.3219 111.996 53.4156 112.068C53.5094 112.143 53.6044 112.203 53.7008 112.247C53.7971 112.291 53.8935 112.322 53.9899 112.34C54.0862 112.361 54.1826 112.371 54.2789 112.371C54.4508 112.371 54.6057 112.347 54.7438 112.297C54.8818 112.248 54.999 112.176 55.0953 112.08C55.1943 111.987 55.2698 111.87 55.3219 111.731C55.374 111.591 55.4 111.43 55.4 111.249V110.888C55.2594 111.049 55.0927 111.172 54.9 111.257C54.7099 111.34 54.4886 111.381 54.2359 111.381C53.9781 111.381 53.7451 111.327 53.5367 111.218C53.3284 111.109 53.1513 110.959 53.0055 110.768C52.8623 110.576 52.7516 110.351 52.6734 110.092C52.5953 109.831 52.5563 109.55 52.5563 109.25V109.169ZM53.2789 109.25C53.2789 109.454 53.2998 109.649 53.3414 109.832C53.3857 110.016 53.4534 110.178 53.5445 110.318C53.6383 110.457 53.7568 110.569 53.9 110.651C54.0432 110.732 54.2151 110.772 54.4156 110.772C54.5406 110.772 54.6526 110.758 54.7516 110.729C54.8531 110.698 54.943 110.655 55.0211 110.601C55.1018 110.547 55.1734 110.482 55.2359 110.407C55.2984 110.332 55.3531 110.249 55.4 110.158V108.233C55.3531 108.145 55.2984 108.065 55.2359 107.992C55.1734 107.92 55.1018 107.858 55.0211 107.806C54.9404 107.752 54.8505 107.71 54.7516 107.682C54.6526 107.651 54.5432 107.635 54.4234 107.635C54.2203 107.635 54.0458 107.677 53.9 107.759C53.7568 107.842 53.6383 107.955 53.5445 108.097C53.4534 108.237 53.3857 108.4 53.3414 108.586C53.2998 108.77 53.2789 108.964 53.2789 109.169V109.25Z" fill="black"/>
<path d="M60.321 111.381C60.0241 111.381 59.7506 111.331 59.5006 111.23C59.2532 111.129 59.041 110.988 58.8639 110.807C58.6868 110.626 58.5488 110.411 58.4499 110.162C58.3509 109.914 58.3014 109.643 58.3014 109.351V109.188C58.3014 108.849 58.3561 108.546 58.4655 108.28C58.5749 108.01 58.7194 107.784 58.8991 107.6C59.0814 107.414 59.2871 107.272 59.5163 107.173C59.748 107.075 59.985 107.026 60.2272 107.026C60.5319 107.026 60.7975 107.079 61.0241 107.185C61.2532 107.288 61.4433 107.433 61.5944 107.62C61.7454 107.803 61.8574 108.021 61.9303 108.272C62.0058 108.523 62.0436 108.795 62.0436 109.087V109.409H59.0241C59.0319 109.601 59.0683 109.781 59.1335 109.949C59.2012 110.117 59.2923 110.265 59.4069 110.391C59.5241 110.516 59.6634 110.614 59.8249 110.686C59.9863 110.759 60.1647 110.795 60.36 110.795C60.6178 110.795 60.847 110.743 61.0475 110.64C61.248 110.536 61.4147 110.399 61.5475 110.228L61.9889 110.57C61.9186 110.676 61.8301 110.778 61.7233 110.877C61.6191 110.972 61.498 111.058 61.36 111.133C61.222 111.208 61.0657 111.267 60.8913 111.311C60.7168 111.358 60.5267 111.381 60.321 111.381ZM60.2272 107.616C60.0814 107.616 59.9433 107.643 59.8131 107.697C59.6829 107.749 59.5657 107.827 59.4616 107.93C59.3574 108.031 59.2689 108.157 59.196 108.307C59.1256 108.454 59.0762 108.625 59.0475 108.819H61.321V108.765C61.3131 108.625 61.2858 108.487 61.2389 108.349C61.1946 108.212 61.1282 108.089 61.0397 107.981C60.9512 107.872 60.8392 107.784 60.7038 107.717C60.571 107.649 60.4121 107.616 60.2272 107.616Z" fill="black"/>
<path d="M64.8669 107.103L64.9177 107.724C65.0713 107.507 65.2601 107.338 65.4841 107.216C65.708 107.092 65.958 107.028 66.2341 107.026C66.4554 107.026 66.656 107.057 66.8356 107.119C67.0179 107.181 67.1729 107.278 67.3005 107.41C67.4281 107.542 67.5257 107.71 67.5935 107.915C67.6638 108.116 67.6989 108.357 67.6989 108.637V111.304H66.9763V108.652C66.9763 108.466 66.9554 108.308 66.9138 108.179C66.8721 108.049 66.8096 107.944 66.7263 107.864C66.6455 107.784 66.5453 107.726 66.4255 107.689C66.3083 107.653 66.1729 107.635 66.0192 107.635C65.777 107.635 65.5635 107.696 65.3786 107.818C65.1963 107.937 65.0505 108.094 64.9411 108.291V111.304H64.2185V107.103H64.8669Z" fill="black"/>
<path d="M71.7839 110.799C71.9141 110.799 72.0404 110.778 72.1628 110.737C72.2878 110.695 72.3985 110.638 72.4949 110.566C72.5912 110.491 72.668 110.404 72.7253 110.306C72.7852 110.205 72.8165 110.096 72.8191 109.98H73.5027C73.5001 110.166 73.4506 110.345 73.3542 110.516C73.2605 110.684 73.1342 110.833 72.9753 110.962C72.8165 111.089 72.6342 111.191 72.4284 111.269C72.2227 111.344 72.0079 111.381 71.7839 111.381C71.4636 111.381 71.1837 111.324 70.9441 111.21C70.7045 111.097 70.504 110.944 70.3425 110.752C70.1837 110.558 70.0639 110.336 69.9831 110.085C69.9024 109.831 69.862 109.564 69.862 109.285V109.122C69.862 108.845 69.9024 108.58 69.9831 108.326C70.0639 108.072 70.1837 107.85 70.3425 107.658C70.504 107.464 70.7045 107.31 70.9441 107.196C71.1837 107.083 71.4636 107.026 71.7839 107.026C72.0339 107.026 72.2631 107.066 72.4714 107.146C72.6824 107.224 72.8633 107.331 73.0144 107.468C73.168 107.603 73.2878 107.763 73.3738 107.95C73.4597 108.136 73.5027 108.335 73.5027 108.547H72.8191C72.8165 108.421 72.7878 108.302 72.7331 108.19C72.6811 108.076 72.6094 107.977 72.5183 107.891C72.4271 107.806 72.3178 107.739 72.1902 107.689C72.0652 107.64 71.9298 107.616 71.7839 107.616C71.56 107.616 71.3712 107.661 71.2175 107.752C71.0665 107.84 70.9441 107.956 70.8503 108.101C70.7566 108.243 70.6889 108.404 70.6472 108.582C70.6081 108.761 70.5886 108.941 70.5886 109.122V109.285C70.5886 109.469 70.6081 109.651 70.6472 109.832C70.6889 110.011 70.7553 110.173 70.8464 110.318C70.9402 110.46 71.0626 110.576 71.2136 110.667C71.3673 110.755 71.5574 110.799 71.7839 110.799Z" fill="black"/>
<path d="M77.3025 109.813L77.49 110.321L78.7791 107.103H79.5877L77.4431 111.952C77.3937 112.061 77.3299 112.176 77.2517 112.297C77.1762 112.419 77.0838 112.532 76.9744 112.635C76.865 112.739 76.7374 112.825 76.5916 112.895C76.4457 112.965 76.2778 113 76.0877 113C76.0538 113 76.0161 112.997 75.9744 112.992C75.9327 112.99 75.8911 112.984 75.8494 112.977C75.8077 112.972 75.7687 112.965 75.7322 112.957C75.6957 112.95 75.6658 112.943 75.6424 112.938L75.7595 112.352C75.7778 112.352 75.8025 112.353 75.8338 112.356C75.865 112.358 75.8976 112.361 75.9314 112.363C75.9653 112.366 75.9978 112.367 76.0291 112.367C76.0603 112.37 76.0851 112.371 76.1033 112.371C76.2023 112.371 76.2921 112.344 76.3728 112.29C76.4562 112.235 76.5291 112.171 76.5916 112.095C76.6567 112.02 76.7114 111.943 76.7556 111.863C76.8025 111.782 76.839 111.716 76.865 111.665L77.1541 111.106L75.3338 107.103H76.1424L77.3025 109.813Z" fill="black"/>
</svg>
